<?xml version="1.0" encoding="iso-8859-1"?>
<!-- Generator: Adobe Illustrator 16.0.0, SVG Export Plug-In . SVG Version: 6.00 Build 0)  -->
<!DOCTYPE svg PUBLIC "-//W3C//DTD SVG 1.1//EN" "http://www.w3.org/Graphics/SVG/1.1/DTD/svg11.dtd">
<svg version="1.1" id="Capa_1" xmlns="http://www.w3.org/2000/svg" xmlns:xlink="http://www.w3.org/1999/xlink" x="0px" y="0px"
	 width="512px" height="512px" viewBox="0 0 512 512" style="enable-background:new 0 0 512 512;" xml:space="preserve">
<g>
	<path d="M256,0C114.609,0,0,114.609,0,256c0,141.391,114.609,256,256,256c141.391,0,256-114.609,256-256
		C512,114.609,397.391,0,256,0z M256,472c-119.297,0-216-96.703-216-216S136.703,40,256,40s216,96.703,216,216S375.297,472,256,472z
		"/>
	<path d="M327.125,383.969c5.703,0.016,56.875-37.828,56.875-42.656s-57.266-40.905-62.219-40.905s-21.578,19.938-26.062,22.155
		c-4.5,2.22-32.5,1.422-63.703-29.78c-31.219-31.188-41.875-67.109-41.875-72.75c0-5.641,26.031-23.062,26.75-27.156
		c0.719-4.094-34.313-64.876-40-64.876S128,180.5,128,184.875s3.953,60.656,75.219,131.906S321.422,383.938,327.125,383.969z"/>
</g>
<g>
</g>
<g>
</g>
<g>
</g>
<g>
</g>
<g>
</g>
<g>
</g>
<g>
</g>
<g>
</g>
<g>
</g>
<g>
</g>
<g>
</g>
<g>
</g>
<g>
</g>
<g>
</g>
<g>
</g>
</svg>
