<svg xmlns="http://www.w3.org/2000/svg" xmlns:xlink="http://www.w3.org/1999/xlink" viewBox="0 0 400 300"><defs><linearGradient id="linear-gradient" x1="308.95" y1="176.65" x2="323.37" y2="183.73" gradientUnits="userSpaceOnUse"><stop offset="0.01" stop-color="#fbae17"/><stop offset="1" stop-color="#fff"/></linearGradient><linearGradient id="linear-gradient-2" x1="242.37" y1="181.46" x2="253.52" y2="198.76" xlink:href="#linear-gradient"/><linearGradient id="linear-gradient-3" x1="128.96" y1="237.05" x2="153.35" y2="252.91" xlink:href="#linear-gradient"/></defs><title>121-130</title><g style="isolation:isolate"><g id="Layer_2" data-name="Layer 2"><path d="M341.33,171l-115.5-67.17a5.46,5.46,0,0,0-5.46,0L47.65,202.7a5.46,5.46,0,0,0,0,9.47l110.45,63.77a17.83,17.83,0,0,0,17.83,0l165.4-95.46A5.46,5.46,0,0,0,341.33,171Z" fill="#f4d345"/><path d="M335.66,181.8c-7.76-5-15.57-9.88-23.58-14.45l-19.49,8.91,25.74,15.83C324,188.45,329.84,185.17,335.66,181.8Z" fill="url(#linear-gradient)" style="mix-blend-mode:multiply"/><path d="M256.5,212.86c5.51-3.25,25.06-14.79,27.65-16.17l-36.52-22.15-28,14.07C220,194.21,216.48,208,256.5,212.86Z" fill="url(#linear-gradient-2)" style="mix-blend-mode:multiply"/><path d="M133.18,228.62l-19.49,8.91,21.38,15.71c24.91,15.08,32,3.07,37.72.1C159.64,245,146.71,236.32,133.18,228.62Z" fill="url(#linear-gradient-3)" style="mix-blend-mode:multiply"/><path d="M104.57,101.1a3.89,3.89,0,0,0-1.93,3.39V200c-.14,1.95,2.06,3.75,3.85,2.73l39.1-22.26c1.57-.9,73.14-41.16,73.14-43l3.88-100a1.87,1.87,0,0,0-2.79-1.71C202.37,45.59,112.5,96.49,104.57,101.1Z" fill="#e93535"/><polygon points="112.33 109.95 112.33 190.09 120.96 184.6 120.96 104.97 112.33 109.95" fill="#fff" opacity="0.6"/><path d="M124,92.64l-17.87,10.48a1.13,1.13,0,0,0-.56,1V199.5a.77.77,0,0,0,1.16.67L218.82,135a5.12,5.12,0,0,1-2.11,4.1c-2.14,1.37-110.23,63.61-110.23,63.61s-3,1.35-3.85-2.21v-96a3.93,3.93,0,0,1,1.62-3.18c1.73-1.25,113-66.08,113-66.08s4.05-1.48,5.4,1L135.46,86" fill="#124577"/><path d="M168.23,115l1.34,30.5s19.22-5.38,20.53-32.46l-.87-5.53Z" fill="#cee831"/><path d="M168.23,115l5.21-28.62s13.81.76,14.69,23Z" fill="#ffa513"/><path d="M165,151a17.08,17.08,0,0,1-3-.27c-6.6-1.18-12-6.11-15.28-13.88-3.06-7.32-3.84-16.4-2.21-25.57,3.53-19.74,16.73-33.34,30.06-31,6.6,1.18,12,6.11,15.28,13.88,3.06,7.32,3.84,16.4,2.21,25.57h0c-1.64,9.17-5.52,17.42-10.92,23.23C176.21,148.26,170.58,151,165,151Zm6.61-64.85c-9.09,0-18.47,11.39-21.11,26.2-1.43,8-.78,15.9,1.83,22.15,2.42,5.8,6.23,9.43,10.73,10.23s9.33-1.29,13.61-5.89c4.61-5,7.95-12.12,9.38-20.15h0c1.43-8,.78-15.9-1.83-22.15-2.42-5.8-6.23-9.43-10.73-10.23A10.62,10.62,0,0,0,171.57,86.18Z" fill="#f2f2f2"/><polygon points="125.48 103.18 125.48 168.65 132.54 164.16 132.54 99.11 125.48 103.18" fill="#fff" opacity="0.6"/><path d="M144.69,137a8.89,8.89,0,0,1,.6-1.18.13.13,0,0,0,0,.06.16.16,0,0,0,.29,0l.44-.66a.77.77,0,0,0,0,.26.66.66,0,0,0,.73.52.65.65,0,0,0,.59-.83l.2-.23a.66.66,0,0,0,0,.2.58.58,0,0,0,1,.24c.08-.07.14-.14.22-.21a.48.48,0,0,0,.39,0,14.91,14.91,0,0,0,1.67-.68.26.26,0,0,1-.08-.41,16.64,16.64,0,0,1,2-1.4l.09,0,0-.07a2.27,2.27,0,0,0-.11-1.63,1.78,1.78,0,0,0,.37-1.51.27.27,0,0,1-.15-.06,1.23,1.23,0,0,1-.26-.31,1.72,1.72,0,0,1-.28-.52.24.24,0,0,1,.09-.26c-.26-.35-.57-.68-.85-1a6.65,6.65,0,0,0,.9-3.74.57.57,0,0,0-1.06-.27,12.05,12.05,0,0,0-.7,1.28.48.48,0,0,0-.16.18,70.6,70.6,0,0,1-3.73,6.7c-.23.36-3.06,4.26-2.74,4.36C144.16,136,141.83,141.39,144.69,137Zm1.67-1.65s0,0,0,0a.15.15,0,0,0,.23,0l0,0a.59.59,0,0,0,.49.1.37.37,0,0,1-.74,0Z" fill="#fcbf81"/><path d="M145,135.78a6.19,6.19,0,0,0,1.53-1.74,1.19,1.19,0,0,1,1.65-.46,7,7,0,0,0,.07-.95,1.25,1.25,0,0,1,2.5,0,6.09,6.09,0,0,1-1,3.58,10.25,10.25,0,0,1-2.73,2.41,1.28,1.28,0,0,1-1.91-1l-.11-.09A1.26,1.26,0,0,1,145,135.78Z" fill="#fcbf81"/><path d="M149,136.74a5.07,5.07,0,0,0,2.12-3,.14.14,0,0,0,.21,0l1-.67a2.34,2.34,0,0,0,.56-.46c.36-.47,0-1-.15-1.48a.15.15,0,0,0-.06-.07l.14-.24a2.14,2.14,0,0,0,.38-1.24c-.07-.43-.48-.72-.67-1.09a1,1,0,0,0-.58-1.06c-.53-.24-.83.16-1.12.55q-.92,1.26-1.75,2.58c-.11.17.17.32.27.15.3-.48.6-.95.92-1.41a5.89,5.89,0,0,1,1-1.41c1.11-.64.9.9.72,1.29-.1.23-.24.45-.37.67l-.84,1.49v0a.14.14,0,0,0,0,.12,4.4,4.4,0,0,1-1.93,4.88C148.68,136.59,148.84,136.86,149,136.74Zm2.27-5.09a.14.14,0,0,0-.16,0l0-.1a11.89,11.89,0,0,0,1.36-2.55c.08.1.16.2.23.31a1,1,0,0,1,.06,1C152.54,130.85,152,132,151.28,131.65Zm-.1,1.9a4.38,4.38,0,0,0,0-1.61c.54.27,1-.09,1.32-.52a3.45,3.45,0,0,1,.22.62.65.65,0,0,1-.33.69C152,133,151.58,133.28,151.17,133.55Z" fill="#34323d"/><path d="M131.13,141.79s7.3.35,9.2-1.4,4.64-7.25,4.64-7.25,5.61,3.24,5.28,5.1c-1.49,8.43-9.47,13.6-11.92,14.21" fill="#e55600"/><path d="M120.06,231.8s6.17-2.74,7.65-2.85,4,.4,1.8,3.12c0,0-6.49,4.25-7.35,4.38s-2.94-.52-3-.29-.25,1.86-.25,1.86-5.43,2.07-5.66-1.56c0-.47.78-7.21.78-7.21" fill="#e55600"/><path d="M113,215.9c1.08-7,3-13.73,3.85-20.79.51-4.44.88-8.9,1.43-13.34s2.2-8.73,3.27-13.12a.48.48,0,0,0-.22-.54c.05-.15.09-.31.15-.46.55-.52,1.11-1,1.65-1.49l7.59,5.11s0,4.64-.28,11.38c-.88,3.92-1.55,7.42-2.55,11.14a1,1,0,0,1,.24.88,315.09,315.09,0,0,0-5.39,35.49,1,1,0,0,1-.68.89l-.21,1.84c-6.6,2.55-8-1.89-8-1.89s-.3-3.78-.67-9C113,219.93,112.93,217.91,113,215.9Z" fill="#34323d"/><path d="M133.56,241.95l3.67,1.31a2,2,0,0,0,1.48,1.35.82.82,0,0,0,.51.28,9.61,9.61,0,0,0,4.36-.71c1.75-.55,8.61-3.17,6.71,1.75-1.25.88-2.65,1.64-3.93,2.42-.72.44-1.44.87-2.18,1.28a4.33,4.33,0,0,1-1.28.59c-1,.15-3.38-.59-3.44-.34s-.28,2.14-.28,2.14-6.24,2.38-6.51-1.8C132.62,249.69,133.56,241.95,133.56,241.95Z" fill="#e55600"/><path d="M128.4,204.43c-.76-12.33-1.19-24.74-3.79-36.86-.11-3.15-2.15-1.14-2-2.39,1.11-10.14,15.89,1.93,15.89,1.93.6.49.67,3.6.79,4.3q1,5.84,1.72,11.73c2.44,19.81,1.54,39.51.54,59.38-3.14,3.21-5.19,4.17-10.25,2.1-1-13-2-26-2.8-39Z" fill="#34323d"/><path d="M136.3,143.13c-.14-.64-1.8-1.07-2.29-1.34-1.15-.62-.47-1.7-1.6-2.37a38.48,38.48,0,0,0-5.07-2.47h0c-2.8,0-7.5-.16-7.79,3.59A112,112,0,0,0,120,157.8c.18,2.31.38,4.6.58,6.85.07.82.18,7.48.67,7.68,5.57,2.3,12.68,1.49,18.13-.67A185.05,185.05,0,0,0,136.3,143.13Z" fill="#e55600"/><path d="M128.59,125.28c.37.1,3.48,7.24,2.26,11.59s-8.59-.12-10.45-3.43S121.62,123.48,128.59,125.28Z" fill="#fcbf81"/><path d="M128.49,126.28a3.43,3.43,0,0,1-2.06,3.12c-2.07.76-3.78,1.28-3.67,2.23s3.73-.13,3.74,2.05a16.29,16.29,0,0,1-.59,4.36c-.23,1.07-6.42-2.21-8.47-7.81s3.07-7.08,3.32-7.12A5.19,5.19,0,0,1,124,121c2.51-.54,3.21.43,3.21.43a3,3,0,0,1,3.66.4c2.31,1.83,1.72,5.19-.89,6.55Z" fill="#34323d"/><path d="M137.84,190.44s14.36-4.72,16.07-6l-5.66-19.26-15.67,6.91Z" fill="#e93535"/><path d="M148.15,186.12c-.27-.37-.56-.77-.94-1.22a17.53,17.53,0,0,0,2.8,1.48c.86.42,1.42-.85.76-1.39a51.5,51.5,0,0,1-5.56-5,.83.83,0,0,0-.27-.2l-.13-1.18c0-.35-.06-.68-.1-1,0-.1,0-.19,0-.29a.72.72,0,0,0-.26-.65,2.3,2.3,0,0,0-.25-.42.74.74,0,0,0-.11-.11c-.08-.38-.14-.77-.22-1.15a.85.85,0,0,0-1.26-.53l.08-.17c.46-.92-1-1.49-1.5-.57A11.71,11.71,0,0,0,140,180a.7.7,0,0,0,0,.7l.17.36a17.75,17.75,0,0,0,1.59,5.26,4.86,4.86,0,0,1,.45,1.4h0C144.19,187.25,146.16,186.67,148.15,186.12Z" fill="#fcbf81"/><path d="M147.21,184.89s1.73,1.77,1.45,2.28a7.64,7.64,0,0,1-4.42,1.89c-1.58,0-3-.71-3.29-4.62" fill="#fcbf81"/><path d="M132.42,139.42s5.46,3.53,7,6.74,7.68,31.53,7,33.14-5.76,3.6-6.94,2.55-3.37-17.5-3.37-17.5" fill="#e55600"/><path d="M208,93.65c-.23-.17-.47-.32-.7-.47a.54.54,0,0,0-.4-.82l-.24,0a.48.48,0,0,0-.22-.32l-.14-.09a.49.49,0,0,0-.12-.28c-2.18-2.52-4.89-5.85-8.23-6.79a.5.5,0,0,0-.62.62,4.24,4.24,0,0,0,1.26,2h0c-1.82-.33-6.5-1.14-6.28.81a.84.84,0,0,0,.53.69c-.68-.1-1.14,0-1.42.79a.5.5,0,0,0,.13.49,1.9,1.9,0,0,0,.73.49l-.22.05a.51.51,0,0,0-.3.73,2.64,2.64,0,0,0,2.6,1.14,1.48,1.48,0,0,0-.46.81.5.5,0,0,0,.13.49c1,.82,2.68.31,3.84.16l1.84-.27c2.33.06,4,1.1,6,2.57a.55.55,0,0,0,.8-.15C208,97.37,209.5,94.78,208,93.65Z" fill="#fbb5ad"/><path d="M218,176v0c1,0,2.29,1,3.16,1.44l2.39,1.17s1.6,5.93,2.5,8.1,4.19,6.92,3,8.69a5.3,5.3,0,0,1-7.06,1.41c-3-1.65-2.92-7.15-4-9.28-.9-1.77-.48-5.53-.48-6.34A20.81,20.81,0,0,1,218,176Z" fill="#181816"/><path d="M242.75,165.25v0c1,0,2.29,1,3.16,1.44l2.39,1.17s.83,6.46,2.5,8.1,8,5.12,6.91,6.89a5.13,5.13,0,0,1-6.91,1.59c-3-1.65-5-5-7.13-5.89-1.84-.74-1.06-5.52-1.13-7.13A22.68,22.68,0,0,1,242.75,165.25Z" fill="#181816"/><path d="M247.05,104.84s4.1,21.83,3.73,33.81-.58,26.63-1.49,33.12c0,0-7.93,1.11-10.63-1.27,0,0-.8-42-.85-41.72-1.22,5.52-6.91,33.8-7.52,35.65s-3.53,16.75-3.53,16.75a14.37,14.37,0,0,1-11.29-1.9s1-21.47,2.83-27.5,8.25-44,11.37-46.93" fill="#e93535"/><path d="M247.05,104.84s4.1,21.83,3.73,33.81-.58,26.63-1.49,33.12c0,0-7.93,1.11-10.63-1.27,0,0-.8-42-.85-41.72-1.22,5.52-6.91,33.8-7.52,35.65s-3.53,16.75-3.53,16.75a14.37,14.37,0,0,1-11.29-1.9s1-21.47,2.83-27.5,8.25-44,11.37-46.93" fill="#181816" opacity="0.67"/><path d="M229.87,106.6s-7-20.41-4.18-25.08,14.2-8.34,19.65-7.87,2,32.71,1.09,32.95S237.52,112.36,229.87,106.6Z" fill="#f7931e"/><path d="M227.54,79.41l8.51-3.53q2.32,11.23,4.81,22.42L229,100.39s-7.08-3.9-8.17-10.08S227.22,79.7,227.54,79.41Z" fill="#f7931e"/><path d="M244.72,85.93s1.13-11.15,1.13-12.13A26.59,26.59,0,0,1,255,78.46,30,30,0,0,1,258.82,82a9.58,9.58,0,0,1,2,2.65,7,7,0,0,1,.1,3.62,28.06,28.06,0,0,1-2.79,7.94,42.26,42.26,0,0,1-5.11,8.14c-.62.77-2.63,3.61-3.94,3.15-2.63-.92-3.72-4-3.72-4s1.21-2.39,2.52-5.34c.78-1.75,4.27-5.72,4.74-8.43a13.67,13.67,0,0,0-1.12-1.33C249.75,86.74,246.87,87.06,244.72,85.93Z" fill="#f7931e"/><path d="M243.72,74.43,242,83.21l-2.43-2.83-1.84,3.52-4.92-6.68S240.39,73.71,243.72,74.43Z" fill="#ed6b00"/><path d="M234.25,70.51c1.28,1.42,3.73.78,5.35.41,2-.44,4.22-1.64,4-4,0-.35.52-.35.55,0,.18,2.44-2,3.91-4.14,4.43-1.87.47-4.7,1.17-6.19-.48C233.63,70.64,234,70.25,234.25,70.51Z" fill="#009245"/><path d="M244.72,65.47s0,11.92-4.37,12.7c-4.8.85-7.51-4.6-7.51-4.6S232.23,63,237,62.11,244.58,63.95,244.72,65.47Z" fill="#fbb5ad"/><path d="M241,73.49a.82.82,0,0,0,.33-.05,33.36,33.36,0,0,0-.45-3.31.31.31,0,0,1,.62-.11,33.36,33.36,0,0,1,.47,3.55.33.33,0,0,1-.17.34,1.56,1.56,0,0,1-.84.21C240.59,74.11,240.64,73.49,241,73.49Z" fill="#56403d"/><path d="M239,73.75a1.74,1.74,0,0,0,2.23.93c.25-.09.36.31.11.4a2.15,2.15,0,0,1-2.7-1.12C238.55,73.72,238.91,73.51,239,73.75Z" fill="#56403d"/><path d="M239.58,72.06a.31.31,0,0,1,0,.62A.31.31,0,0,1,239.58,72.06Z" fill="#56403d"/><path d="M243.42,71.23a.31.31,0,0,1,0,.62A.31.31,0,0,1,243.42,71.23Z" fill="#56403d"/><path d="M236.23,72.38s-1.16-4.57-2.44-3.07,2.07,4.8,2.07,4.8" fill="#fbb5ad"/><path d="M235.06,60.62s-4.27.46-5.51,3.86,2,10.16,4.24,11.21L231,69.77l.14-4Z" fill="#5c2e2e"/><path d="M230.93,72.06a12,12,0,0,0,2.86,3.63,5.81,5.81,0,0,1,.29-4.22.33.33,0,0,1,.54-.05,2.64,2.64,0,0,1,1.37.08c.19-.5.36-.86.43-1,.89,0,2.12-.51,2.23-1.4.14-1.09,1.18.21,3.36-.29,1.26-.29,1.07-1.12.68-1.77a4,4,0,0,0,1.8.85,2.53,2.53,0,0,0,3.12-1.68,2.85,2.85,0,0,0-1.61-3,3.11,3.11,0,0,0-1.69-.3,5.22,5.22,0,0,0-1.73-1.66,9.07,9.07,0,0,0-6.29-1,1.69,1.69,0,0,0,.08-1.43.32.32,0,0,0-.52-.14,4.63,4.63,0,0,0-1,1.31,2,2,0,0,0-1.41-.69.32.32,0,0,0-.27.47,3.41,3.41,0,0,0,.93,1.2l-.51.28c-2.07,1.22-3.64,2.37-4,4.75A10.72,10.72,0,0,0,230.93,72.06Zm4.68-11.92c0-.1.08-.2.12-.3a.31.31,0,0,0,0-.1l.09-.13A1.14,1.14,0,0,1,235.61,60.15Z" fill="#5c2e2e"/><polygon points="241.36 82.46 240.08 84.97 238.27 82.89 239.58 80.39 241.36 82.46" fill="#723100"/><polygon points="240.08 84.97 238.27 104.1 241.51 107.47 243.42 102.42 240.08 84.97" fill="#723100"/><path d="M222.54,83.91s-5,9.92-6.23,10.44-10.84-5.69-10.84-5.69-6,5.09-4.79,6.94,13.43,10.84,19.53,8.84,9.06-10.75,9.06-10.75" fill="#f7931e"/><path d="M245.55,104.1s-1.68,2.33-1.52,3.36,2.23,0,2.23,0l1.83,5.44a3.94,3.94,0,0,0,.87-2.42,18.6,18.6,0,0,0-.34-3.71Z" fill="#fbb5ad"/><polygon points="135.98 169.9 133.27 158.1 132.57 172.35 135.98 169.9" fill="#34323d"/><path d="M292.89,145v30.44s29.26,1.63,29.26,0V145" fill="#e93535"/><ellipse cx="307.51" cy="175.22" rx="14.63" ry="6.68" fill="#e93535"/><ellipse cx="307.51" cy="145.04" rx="14.63" ry="6.68" fill="#3129a3"/><path d="M298.4,150.24l.1.05c.56.2,1.13.37,1.71.52l-4-33.34a2,2,0,0,0-2,.38l4.08,32.32Z" fill="#f78b72"/><path d="M302.94,151.27,304.18,120a2,2,0,0,0-2.07.05l-1,31A16.4,16.4,0,0,0,302.94,151.27Z" fill="#f78b72"/><path d="M307.51,151.72l4-32.62,8.14,4.3-3.3,27.4A24.88,24.88,0,0,1,307.51,151.72Z" fill="#fcb749"/></g></g></svg>